<svg xmlns="http://www.w3.org/2000/svg" viewBox="0 0 760 620" width="100%" role="img" aria-labelledby="fig-diagram-sibling-extrapolation-title fig-diagram-sibling-extrapolation-desc" class="research-fig-svg" font-family="ui-sans-serif, system-ui, sans-serif">
<title id="fig-diagram-sibling-extrapolation-title">Sibling extrapolation: training labels the played action; deployment ranks all seven</title>
<desc id="fig-diagram-sibling-extrapolation-desc">Mechanism diagram: sibling extrapolation, the repeated failure mode of learned Drop7 policies. Panel 1 (training): a root board with seven legal columns; only the played action's afterstate carries a label (an H40 return); the other six successors are unlabelled and marked with question marks. Panel 2 (deployment): the model must rank all seven siblings; the six it never observed equally are outlined as off-distribution. Boards are 7x7, row 0 at top, columns 1-7 left to right; solid gray discs are covered, crack-marked gray discs are cracked; successor boards are drawn as the root plus the dropped disc (cascades not simulated). Explains docs/research/status.md section 4 and docs/exploratory/audit-05-optimistic-curriculum.md section 4, class (iii) sibling coverage / within-root discrimination (experiments 5, 9, 11, 13, 14, 17). No measured numbers are shown.</desc>
<style>
.research-fig-svg text { fill: var(--fig-fg, #222); }
.research-fig-svg .fig-title { font-size: 14px; font-weight: 600; }
.research-fig-svg .fig-sub { font-size: 11px; fill: var(--fig-muted, #888); }
.research-fig-svg .fig-panel { font-size: 12px; font-weight: 600; letter-spacing: 0.02em; }
.research-fig-svg .fig-note { font-size: 10px; fill: var(--fig-muted, #888); }
.research-fig-svg .fig-tiny { font-size: 9px; fill: var(--fig-muted, #888); }
.research-fig-svg .fig-grid { stroke: var(--fig-grid, #d4d4d8); stroke-width: 1; fill: none; }
.research-fig-svg .fig-accent-text { fill: var(--fig-accent, #2563eb); }
.research-fig-svg .fig-danger-text { fill: var(--fig-danger, #dc2626); }
.research-fig-svg .fig-pt { cursor: pointer; outline: none; }
.research-fig-svg .fig-pop { display: none; pointer-events: none; }
.research-fig-svg .fig-pop rect { fill: var(--fig-pop-bg, #ffffff); stroke: var(--fig-pop-border, #d4d4d8); }
.research-fig-svg .fig-pop text { fill: var(--fig-fg, #222); }
.research-fig-svg .fig-pt:hover .fig-pop, .research-fig-svg .fig-pt:focus .fig-pop, .research-fig-svg .fig-pt:focus-within .fig-pop { display: block; }
.research-fig-svg .fig-pt:hover .fig-marker, .research-fig-svg .fig-pt:focus .fig-marker { stroke: var(--fig-fg, #222); stroke-width: 2; }
</style>
<defs>
<marker id="d1-arrA" viewBox="0 0 10 10" refX="8" refY="5" markerWidth="7" markerHeight="7" orient="auto-start-reverse"><path d="M0 0L10 5L0 10z" style="fill: var(--fig-accent, #2563eb)"/></marker>
<marker id="d1-arrM" viewBox="0 0 10 10" refX="8" refY="5" markerWidth="6" markerHeight="6" orient="auto-start-reverse"><path d="M0 0L10 5L0 10z" style="fill: var(--fig-muted, #888)"/></marker>
<g id="d1root">
<path style="fill:none;stroke:var(--fig-grid,#d4d4d8);stroke-width:1" d="M0 0h126v126h-126z M18 0v126 M36 0v126 M54 0v126 M72 0v126 M90 0v126 M108 0v126 M0 18h126 M0 36h126 M0 54h126 M0 72h126 M0 90h126 M0 108h126"/>
<circle cx="9" cy="117" r="7.5" style="fill: var(--fig-accent, #2563eb)"/><text x="9" y="120.4" text-anchor="middle" font-size="9.5" style="fill: #fff">3</text>
<circle cx="27" cy="117" r="7.5" style="fill: var(--fig-cover, #9ca3af)"/>
<circle cx="45" cy="117" r="7.5" style="fill: var(--fig-accent, #2563eb)"/><text x="45" y="120.4" text-anchor="middle" font-size="9.5" style="fill: #fff">2</text>
<circle cx="63" cy="117" r="7.5" style="fill: var(--fig-accent, #2563eb)"/><text x="63" y="120.4" text-anchor="middle" font-size="9.5" style="fill: #fff">5</text>
<circle cx="81" cy="117" r="7.5" style="fill: var(--fig-cover, #9ca3af)"/><path d="M77 112 L81 117 L78.5 121 L84 124" style="fill:none;stroke:var(--fig-fg,#222);stroke-width:1.2"/>
<circle cx="99" cy="117" r="7.5" style="fill: var(--fig-accent, #2563eb)"/><text x="99" y="120.4" text-anchor="middle" font-size="9.5" style="fill: #fff">1</text>
<circle cx="117" cy="117" r="7.5" style="fill: var(--fig-accent, #2563eb)"/><text x="117" y="120.4" text-anchor="middle" font-size="9.5" style="fill: #fff">4</text>
<circle cx="27" cy="99" r="7.5" style="fill: var(--fig-accent, #2563eb)"/><text x="27" y="102.4" text-anchor="middle" font-size="9.5" style="fill: #fff">2</text>
<circle cx="63" cy="99" r="7.5" style="fill: var(--fig-cover, #9ca3af)"/>
<circle cx="99" cy="99" r="7.5" style="fill: var(--fig-accent, #2563eb)"/><text x="99" y="102.4" text-anchor="middle" font-size="9.5" style="fill: #fff">3</text>
<circle cx="63" cy="81" r="7.5" style="fill: var(--fig-accent, #2563eb)"/><text x="63" y="84.4" text-anchor="middle" font-size="9.5" style="fill: #fff">1</text>
</g>
<g id="d1mini">
<path style="fill:none;stroke:var(--fig-grid,#d4d4d8);stroke-width:1" d="M0 0h63v63h-63z M9 0v63 M18 0v63 M27 0v63 M36 0v63 M45 0v63 M54 0v63 M0 9h63 M0 18h63 M0 27h63 M0 36h63 M0 45h63 M0 54h63"/>
<rect x="0.5" y="54.5" width="8" height="8" style="fill: var(--fig-accent, #2563eb); opacity: 0.8"/>
<rect x="9.5" y="54.5" width="8" height="8" style="fill: var(--fig-cover, #9ca3af)"/>
<rect x="18.5" y="54.5" width="8" height="8" style="fill: var(--fig-accent, #2563eb); opacity: 0.8"/>
<rect x="27.5" y="54.5" width="8" height="8" style="fill: var(--fig-accent, #2563eb); opacity: 0.8"/>
<rect x="36.5" y="54.5" width="8" height="8" style="fill: var(--fig-cover, #9ca3af)"/><path d="M38 56 L40 58 L38.5 60.5 L41.5 62" style="fill:none;stroke:var(--fig-fg,#222);stroke-width:0.9"/>
<rect x="45.5" y="54.5" width="8" height="8" style="fill: var(--fig-accent, #2563eb); opacity: 0.8"/>
<rect x="54.5" y="54.5" width="8" height="8" style="fill: var(--fig-accent, #2563eb); opacity: 0.8"/>
<rect x="9.5" y="45.5" width="8" height="8" style="fill: var(--fig-accent, #2563eb); opacity: 0.8"/>
<rect x="27.5" y="45.5" width="8" height="8" style="fill: var(--fig-cover, #9ca3af)"/>
<rect x="45.5" y="45.5" width="8" height="8" style="fill: var(--fig-accent, #2563eb); opacity: 0.8"/>
<rect x="27.5" y="36.5" width="8" height="8" style="fill: var(--fig-accent, #2563eb); opacity: 0.8"/>
</g>
</defs>
<text class="fig-title" x="36" y="26">Sibling extrapolation: training labels the played action; deployment ranks all seven</text>
<text class="fig-sub" x="36" y="44">audit-05 §4 class (iii) — sibling coverage / within-root discrimination: 6 of 17 experiments</text>

<text class="fig-panel" x="36" y="74">TRAINING — only the played action gets a label</text>
<use href="#d1root" x="36" y="92"/>
<text class="fig-tiny" x="36" y="86">row 0</text>
<text class="fig-tiny" x="45" y="232" text-anchor="middle">1</text><text class="fig-tiny" x="63" y="232" text-anchor="middle">2</text><text class="fig-tiny" x="81" y="232" text-anchor="middle">3</text><text class="fig-tiny" x="99" y="232" text-anchor="middle">4</text><text class="fig-tiny" x="117" y="232" text-anchor="middle">5</text><text class="fig-tiny" x="135" y="232" text-anchor="middle">6</text><text class="fig-tiny" x="153" y="232" text-anchor="middle">7</text>
<text class="fig-note" x="99" y="250" text-anchor="middle">next disc: 2 · 3 moves to rise</text>

<line x1="170" y1="155" x2="242" y2="124" stroke="var(--fig-muted, #888)" stroke-width="1.2" stroke-dasharray="5 4" marker-end="url(#d1-arrM)"/>
<line x1="170" y1="155" x2="313" y2="124" stroke="var(--fig-muted, #888)" stroke-width="1.2" stroke-dasharray="5 4" marker-end="url(#d1-arrM)"/>
<line x1="170" y1="155" x2="384" y2="124" stroke="var(--fig-accent, #2563eb)" stroke-width="2.5" marker-end="url(#d1-arrA)"/>
<line x1="170" y1="155" x2="455" y2="124" stroke="var(--fig-muted, #888)" stroke-width="1.2" stroke-dasharray="5 4" marker-end="url(#d1-arrM)"/>
<line x1="170" y1="155" x2="526" y2="124" stroke="var(--fig-muted, #888)" stroke-width="1.2" stroke-dasharray="5 4" marker-end="url(#d1-arrM)"/>
<line x1="170" y1="155" x2="597" y2="124" stroke="var(--fig-muted, #888)" stroke-width="1.2" stroke-dasharray="5 4" marker-end="url(#d1-arrM)"/>
<line x1="170" y1="155" x2="668" y2="124" stroke="var(--fig-muted, #888)" stroke-width="1.2" stroke-dasharray="5 4" marker-end="url(#d1-arrM)"/>

<use href="#d1mini" x="250" y="92"/><use href="#d1mini" x="321" y="92"/><use href="#d1mini" x="392" y="92"/><use href="#d1mini" x="463" y="92"/><use href="#d1mini" x="534" y="92"/><use href="#d1mini" x="605" y="92"/><use href="#d1mini" x="676" y="92"/>
<rect x="250.5" y="137.5" width="8" height="8" style="fill: var(--fig-accent, #2563eb)" stroke="var(--fig-pop-bg, #fff)" stroke-width="1"/>
<rect x="330.5" y="128.5" width="8" height="8" style="fill: var(--fig-accent, #2563eb)" stroke="var(--fig-pop-bg, #fff)" stroke-width="1"/>
<rect x="410.5" y="137.5" width="8" height="8" style="fill: var(--fig-accent, #2563eb)" stroke="var(--fig-pop-bg, #fff)" stroke-width="1"/>
<rect x="490.5" y="119.5" width="8" height="8" style="fill: var(--fig-accent, #2563eb)" stroke="var(--fig-pop-bg, #fff)" stroke-width="1"/>
<rect x="570.5" y="137.5" width="8" height="8" style="fill: var(--fig-accent, #2563eb)" stroke="var(--fig-pop-bg, #fff)" stroke-width="1"/>
<rect x="650.5" y="128.5" width="8" height="8" style="fill: var(--fig-accent, #2563eb)" stroke="var(--fig-pop-bg, #fff)" stroke-width="1"/>
<rect x="730.5" y="137.5" width="8" height="8" style="fill: var(--fig-accent, #2563eb)" stroke="var(--fig-pop-bg, #fff)" stroke-width="1"/>
<text class="fig-note" x="281.5" y="170" text-anchor="middle">col 1</text><text class="fig-note" x="352.5" y="170" text-anchor="middle">col 2</text><text class="fig-note" x="423.5" y="170" text-anchor="middle">col 3</text><text class="fig-note" x="494.5" y="170" text-anchor="middle">col 4</text><text class="fig-note" x="565.5" y="170" text-anchor="middle">col 5</text><text class="fig-note" x="636.5" y="170" text-anchor="middle">col 6</text><text class="fig-note" x="707.5" y="170" text-anchor="middle">col 7</text>
<rect x="358" y="180" width="130" height="18" rx="4" style="fill: var(--fig-accent, #2563eb); opacity: 0.14" stroke="var(--fig-accent, #2563eb)" stroke-width="1"/>
<text class="fig-accent-text" x="423" y="193" text-anchor="middle" font-size="10">label: H40 return</text>
<text class="fig-sub" x="281.5" y="195" text-anchor="middle" font-size="13">?</text><text class="fig-sub" x="352.5" y="195" text-anchor="middle" font-size="13">?</text><text class="fig-sub" x="494.5" y="195" text-anchor="middle" font-size="13">?</text><text class="fig-sub" x="565.5" y="195" text-anchor="middle" font-size="13">?</text><text class="fig-sub" x="636.5" y="195" text-anchor="middle" font-size="13">?</text><text class="fig-sub" x="707.5" y="195" text-anchor="middle" font-size="13">?</text>

<text class="fig-panel" x="36" y="300">DEPLOYMENT — the model must rank all seven siblings</text>
<use href="#d1root" x="36" y="318"/>
<text class="fig-tiny" x="36" y="312">row 0</text>
<text class="fig-tiny" x="45" y="458" text-anchor="middle">1</text><text class="fig-tiny" x="63" y="458" text-anchor="middle">2</text><text class="fig-tiny" x="81" y="458" text-anchor="middle">3</text><text class="fig-tiny" x="99" y="458" text-anchor="middle">4</text><text class="fig-tiny" x="117" y="458" text-anchor="middle">5</text><text class="fig-tiny" x="135" y="458" text-anchor="middle">6</text><text class="fig-tiny" x="153" y="458" text-anchor="middle">7</text>

<line x1="170" y1="381" x2="242" y2="350" stroke="var(--fig-muted, #888)" stroke-width="1.4" marker-end="url(#d1-arrM)"/>
<line x1="170" y1="381" x2="313" y2="350" stroke="var(--fig-muted, #888)" stroke-width="1.4" marker-end="url(#d1-arrM)"/>
<line x1="170" y1="381" x2="384" y2="350" stroke="var(--fig-accent, #2563eb)" stroke-width="1.4" marker-end="url(#d1-arrA)"/>
<line x1="170" y1="381" x2="455" y2="350" stroke="var(--fig-muted, #888)" stroke-width="1.4" marker-end="url(#d1-arrM)"/>
<line x1="170" y1="381" x2="526" y2="350" stroke="var(--fig-muted, #888)" stroke-width="1.4" marker-end="url(#d1-arrM)"/>
<line x1="170" y1="381" x2="597" y2="350" stroke="var(--fig-muted, #888)" stroke-width="1.4" marker-end="url(#d1-arrM)"/>
<line x1="170" y1="381" x2="668" y2="350" stroke="var(--fig-muted, #888)" stroke-width="1.4" marker-end="url(#d1-arrM)"/>

<use href="#d1mini" x="250" y="318"/><use href="#d1mini" x="321" y="318"/><use href="#d1mini" x="392" y="318"/><use href="#d1mini" x="463" y="318"/><use href="#d1mini" x="534" y="318"/><use href="#d1mini" x="605" y="318"/><use href="#d1mini" x="676" y="318"/>
<rect x="250.5" y="363.5" width="8" height="8" style="fill: var(--fig-accent, #2563eb)" stroke="var(--fig-pop-bg, #fff)" stroke-width="1"/>
<rect x="330.5" y="354.5" width="8" height="8" style="fill: var(--fig-accent, #2563eb)" stroke="var(--fig-pop-bg, #fff)" stroke-width="1"/>
<rect x="410.5" y="363.5" width="8" height="8" style="fill: var(--fig-accent, #2563eb)" stroke="var(--fig-pop-bg, #fff)" stroke-width="1"/>
<rect x="490.5" y="345.5" width="8" height="8" style="fill: var(--fig-accent, #2563eb)" stroke="var(--fig-pop-bg, #fff)" stroke-width="1"/>
<rect x="570.5" y="363.5" width="8" height="8" style="fill: var(--fig-accent, #2563eb)" stroke="var(--fig-pop-bg, #fff)" stroke-width="1"/>
<rect x="650.5" y="354.5" width="8" height="8" style="fill: var(--fig-accent, #2563eb)" stroke="var(--fig-pop-bg, #fff)" stroke-width="1"/>
<rect x="730.5" y="363.5" width="8" height="8" style="fill: var(--fig-accent, #2563eb)" stroke="var(--fig-pop-bg, #fff)" stroke-width="1"/>
<rect x="246" y="314" width="71" height="71" fill="none" stroke="var(--fig-danger, #dc2626)" stroke-width="1.5" stroke-dasharray="4 3"/>
<rect x="317" y="314" width="71" height="71" fill="none" stroke="var(--fig-danger, #dc2626)" stroke-width="1.5" stroke-dasharray="4 3"/>
<rect x="388" y="314" width="71" height="71" fill="none" stroke="var(--fig-muted, #888)" stroke-width="1"/>
<rect x="459" y="314" width="71" height="71" fill="none" stroke="var(--fig-danger, #dc2626)" stroke-width="1.5" stroke-dasharray="4 3"/>
<rect x="530" y="314" width="71" height="71" fill="none" stroke="var(--fig-danger, #dc2626)" stroke-width="1.5" stroke-dasharray="4 3"/>
<rect x="601" y="314" width="71" height="71" fill="none" stroke="var(--fig-danger, #dc2626)" stroke-width="1.5" stroke-dasharray="4 3"/>
<rect x="672" y="314" width="71" height="71" fill="none" stroke="var(--fig-danger, #dc2626)" stroke-width="1.5" stroke-dasharray="4 3"/>
<text class="fig-note" x="281.5" y="396" text-anchor="middle">col 1</text><text class="fig-note" x="352.5" y="396" text-anchor="middle">col 2</text><text class="fig-note" x="423.5" y="396" text-anchor="middle">col 3</text><text class="fig-note" x="494.5" y="396" text-anchor="middle">col 4</text><text class="fig-note" x="565.5" y="396" text-anchor="middle">col 5</text><text class="fig-note" x="636.5" y="396" text-anchor="middle">col 6</text><text class="fig-note" x="707.5" y="396" text-anchor="middle">col 7</text>
<text class="fig-danger-text" x="281.5" y="412" text-anchor="middle" font-size="9">rank ?</text><text class="fig-danger-text" x="352.5" y="412" text-anchor="middle" font-size="9">rank ?</text><text class="fig-accent-text" x="423.5" y="412" text-anchor="middle" font-size="9">observed</text><text class="fig-danger-text" x="494.5" y="412" text-anchor="middle" font-size="9">rank ?</text><text class="fig-danger-text" x="565.5" y="412" text-anchor="middle" font-size="9">rank ?</text><text class="fig-danger-text" x="636.5" y="412" text-anchor="middle" font-size="9">rank ?</text><text class="fig-danger-text" x="707.5" y="412" text-anchor="middle" font-size="9">rank ?</text>

<rect x="36" y="552" width="688" height="44" rx="6" style="fill: var(--fig-pop-bg, #fff)" stroke="var(--fig-grid, #d4d4d8)"/>
<text x="380" y="570" text-anchor="middle" font-size="12">training covers the played action; deployment ranks all siblings.</text>
<text class="fig-note" x="380" y="586" text-anchor="middle">low value error on the visited successor does not rank the unvisited ones — docs/research/status.md §4</text>

<g class="fig-pt" tabindex="0"><title>Root position — the public state</title><rect x="36" y="92" width="126" height="126" fill="transparent"/><circle class="fig-marker" cx="166" cy="96" r="6.5" style="fill: var(--fig-pop-bg, #fff)" stroke="var(--fig-muted, #888)"/><text x="166" y="99" text-anchor="middle" font-size="9" class="fig-sub">i</text><g class="fig-pop"><rect x="190" y="66" width="400" height="76" rx="4"/><text x="198" y="81" font-size="11" font-weight="600">Root position — the public state</text><text x="198" y="96" font-size="11">visible board, next disc, moves to rise; nothing else.</text><text x="198" y="111" font-size="11">7×7, row 0 at top, columns 1–7 left to right. Solid gray = covered;</text><text x="198" y="126" font-size="11">crack-marked gray = cracked (one hit taken). Data collection played</text><text x="198" y="141" font-size="11">column 3 from this root.</text></g></g>

<g class="fig-pt" tabindex="0"><title>Unplayed siblings — no labels</title><rect x="250" y="92" width="489" height="106" fill="transparent"/><circle class="fig-marker" cx="254" cy="84" r="6.5" style="fill: var(--fig-pop-bg, #fff)" stroke="var(--fig-muted, #888)"/><text x="254" y="87" text-anchor="middle" font-size="9" class="fig-sub">i</text><g class="fig-pop"><rect x="250" y="212" width="440" height="64" rx="4"/><text x="258" y="227" font-size="11" font-weight="600">Unplayed siblings — no label was ever collected for these six afterstates;</text><text x="258" y="242" font-size="11">any value the model assigns them is extrapolated from other roots.</text><text x="258" y="257" font-size="11">audit-05 §4 class (iii): experiments 5, 9, 11, 13, 14, 17.</text><text x="258" y="272" font-size="11">source: docs/exploratory/audit-05-optimistic-curriculum.md §4</text></g></g>

<g class="fig-pt" tabindex="0"><title>Played action — the one labelled sibling</title><rect x="384" y="92" width="110" height="110" fill="transparent"/><circle class="fig-marker" cx="459" cy="100" r="6.5" style="fill: var(--fig-pop-bg, #fff)" stroke="var(--fig-muted, #888)"/><text x="459" y="103" text-anchor="middle" font-size="9" class="fig-sub">i</text><g class="fig-pop"><rect x="240" y="212" width="420" height="64" rx="4"/><text x="248" y="227" font-size="11" font-weight="600">Played action (column 3) — the only sibling with a training label:</text><text x="248" y="242" font-size="11">an H40 return under D1 continuation (the afterstate label panel of</text><text x="248" y="257" font-size="11">the 2026-08-20/21 experiments). source: docs/research/status.md §7</text><text x="248" y="272" font-size="11">The other six columns were never played here, so they carry no label.</text></g></g>

<g class="fig-pt" tabindex="0"><title>Deployment ranks all seven — six are off-distribution</title><rect x="250" y="314" width="489" height="106" fill="transparent"/><circle class="fig-marker" cx="254" cy="306" r="6.5" style="fill: var(--fig-pop-bg, #fff)" stroke="var(--fig-muted, #888)"/><text x="254" y="309" text-anchor="middle" font-size="9" class="fig-sub">i</text><g class="fig-pop"><rect x="250" y="430" width="450" height="78" rx="4"/><text x="258" y="445" font-size="11" font-weight="600">Deployment asks the model to rank all seven columns; six of the seven</text><text x="258" y="460" font-size="11">inputs were never observed equally — within-root discrimination fails.</text><text x="258" y="475" font-size="11">Even successor-closed coverage with every legal sibling labelled and exact</text><text x="258" y="490" font-size="11">search-value labels ranked worse than one-ply exact search.</text><text x="258" y="505" font-size="11">source: docs/research/status.md, directions closed, 2026-08-21</text></g></g>

<g class="fig-pt" tabindex="0"><title>The observed sibling at deployment</title><rect x="388" y="314" width="71" height="106" fill="transparent"/><circle class="fig-marker" cx="463" cy="322" r="6.5" style="fill: var(--fig-pop-bg, #fff)" stroke="var(--fig-muted, #888)"/><text x="463" y="325" text-anchor="middle" font-size="9" class="fig-sub">i</text><g class="fig-pop"><rect x="470" y="430" width="280" height="48" rx="4"/><text x="478" y="445" font-size="11" font-weight="600">The observed sibling: ranking signal exists here —</text><text x="478" y="460" font-size="11">it is the other six that are extrapolation.</text><text x="478" y="475" font-size="11">source: docs/research/status.md §4</text></g></g>

<g class="fig-pt" tabindex="0"><title>Caption — the failure in one line</title><rect x="36" y="552" width="688" height="44" fill="transparent"/><circle class="fig-marker" cx="712" cy="560" r="6.5" style="fill: var(--fig-pop-bg, #fff)" stroke="var(--fig-muted, #888)"/><text x="712" y="563" text-anchor="middle" font-size="9" class="fig-sub">i</text><g class="fig-pop"><rect x="160" y="470" width="480" height="64" rx="4"/><text x="168" y="485" font-size="11" font-weight="600">status.md §4: low value error on visited states did not guarantee good</text><text x="168" y="500" font-size="11">root-action ranking. Sibling coverage is necessary — and demonstrably not</text><text x="168" y="515" font-size="11">sufficient: with coverage complete, the obstacle moved to compact-evaluator</text><text x="168" y="530" font-size="11">capacity (status.md §7 and directions closed, 2026-08-21).</text></g></g>
</svg>
